<svg xmlns="http://www.w3.org/2000/svg" viewBox="0 0 128 128" width="128" height="128">
  <!-- Background circle with gradient -->
  <defs>
    <linearGradient id="bgGradient" x1="0%" y1="0%" x2="100%" y2="100%">
      <stop offset="0%" style="stop-color:#4F46E5;stop-opacity:1" />
      <stop offset="100%" style="stop-color:#7C3AED;stop-opacity:1" />
    </linearGradient>
    <linearGradient id="documentGradient" x1="0%" y1="0%" x2="100%" y2="100%">
      <stop offset="0%" style="stop-color:#FFFFFF;stop-opacity:1" />
      <stop offset="100%" style="stop-color:#F8FAFC;stop-opacity:1" />
    </linearGradient>
    <linearGradient id="checkGradient" x1="0%" y1="0%" x2="100%" y2="100%">
      <stop offset="0%" style="stop-color:#10B981;stop-opacity:1" />
      <stop offset="100%" style="stop-color:#059669;stop-opacity:1" />
    </linearGradient>
  </defs>
  
  <!-- Main background -->
  <circle cx="64" cy="64" r="60" fill="url(#bgGradient)" stroke="#312E81" stroke-width="2"/>
  
  <!-- Document/Resume icon -->
  <rect x="32" y="24" width="48" height="64" rx="4" ry="4" fill="url(#documentGradient)" stroke="#E2E8F0" stroke-width="1"/>
  
  <!-- Document lines representing text -->
  <rect x="38" y="32" width="24" height="2" rx="1" fill="#64748B"/>
  <rect x="38" y="38" width="30" height="2" rx="1" fill="#64748B"/>
  <rect x="38" y="44" width="20" height="2" rx="1" fill="#64748B"/>
  
  <!-- Job application checklist -->
  <rect x="38" y="52" width="28" height="2" rx="1" fill="#64748B"/>
  <rect x="38" y="58" width="26" height="2" rx="1" fill="#64748B"/>
  <rect x="38" y="64" width="24" height="2" rx="1" fill="#64748B"/>
  
  <!-- Checkmark icon in bottom right of document -->
  <circle cx="68" cy="74" r="8" fill="url(#checkGradient)"/>
  <path d="M64 74 L66.5 76.5 L72 71" stroke="white" stroke-width="2" fill="none" stroke-linecap="round" stroke-linejoin="round"/>
  
  <!-- Briefcase icon overlay -->
  <rect x="48" y="94" width="20" height="14" rx="2" fill="#374151" stroke="#1F2937" stroke-width="1"/>
  <rect x="50" y="92" width="16" height="4" rx="1" fill="#6B7280"/>
  <circle cx="58" cy="101" r="1.5" fill="#9CA3AF"/>
  
  <!-- AI Magic sparkle -->
  <g transform="translate(84, 28)">
    <path d="M8 0 L10 6 L16 8 L10 10 L8 16 L6 10 L0 8 L6 6 Z" fill="#FCD34D" opacity="0.9"/>
    <path d="M8 2 L9 6 L13 8 L9 10 L8 14 L7 10 L3 8 L7 6 Z" fill="#FBBF24"/>
  </g>
  
  <!-- Smaller sparkles -->
  <circle cx="20" cy="35" r="2" fill="#FCD34D" opacity="0.7"/>
  <circle cx="98" cy="85" r="1.5" fill="#FCD34D" opacity="0.6"/>
</svg>
